# xmcd CD database file
#
# Track frame offsets:
#	150
#	19235
#	45942
#	69002
#	95827
#	113555
#	144800
#	174827
#	204700
#	227182
#	259617
#
# Disc length: 3819 seconds
#
# Revision: 0
# Processed by: cddbd v1.5PL3 Copyright (c) Steve Scherf et al.
# Submitted via: CDex 1.51
#
DISCID=850ee90b
DTITLE=keiko yamami - for MASQUERADE
DYEAR=1996
DGENRE=Jazz
TTITLE0=ALL OF ME
TTITLE1=POLKA DOTS AND MOONBEAMS
TTITLE2=O'GRANDE AMOR
TTITLE3=EVERYTHING HAPPEN TO ME
TTITLE4=SOMEDAY MY PRONCE WILL COME
TTITLE5=BLACK ORPHEUS
TTITLE6=HUSH-A-BYE
TTITLE7=GEOGIA ON MY MIND
TTITLE8=MISTY
TTITLE9=WHEN YOU WISH UPON A STER - AS TOME'S GOES BY - OVER THE RAINBOW
TTITLE10=MASQUERADE IS OVER
EXTD=YEAR: 1996
EXTT0=
EXTT1=
EXTT2=
EXTT3=
EXTT4=
EXTT5=
EXTT6=
EXTT7=
EXTT8=
EXTT9=
EXTT10=
PLAYORDER=
